<svg xmlns="http://www.w3.org/2000/svg" width="906.764" height="824.022" viewBox="0 0 906.764 824.022"><g transform="translate(-95.847 -14.88)"><path d="M619.281,69.009C694.9,126.595,776.915,171.966,807.744,240.022c30.829,68.638,9.307,159.962-30.247,233.835-38.972,74.455-97.14,131.459-161.706,167.523-65.148,35.482-137.276,50.024-225.109,72.128-88.415,21.522-192.535,51.188-283.858,23.849s-169.85-111.1-187.3-204.751C-97.927,438.375-53.72,333.672-7.186,242.349c47.116-90.742,95.977-168.687,165.2-228.6,69.8-59.913,158.8-100.63,237.906-86.67C475.025-58.379,543.663,10.841,619.281,69.009Z" transform="translate(180.216 90.553)" fill="#ea0087"/><g transform="translate(294.395 188.499)"><text transform="translate(77.605 214.501)" fill="#f8f7f2" font-size="279" font-family="SonderRegular, Sonder" letter-spacing="0.068em"><tspan x="0" y="0">bid</tspan></text><text transform="translate(-0.395 409.501)" fill="#f8f7f2" font-size="275" font-family="SonderRegular, Sonder" letter-spacing="0.068em"><tspan x="0" y="0">spot</tspan></text></g></g></svg>